<?xml version="1.0" standalone="no"?>
<!DOCTYPE svg PUBLIC "-//W3C//DTD SVG 20010904//EN"
 "http://www.w3.org/TR/2001/REC-SVG-20010904/DTD/svg10.dtd">
<svg version="1.0" xmlns="http://www.w3.org/2000/svg"
 width="629.000000pt" height="524.000000pt" viewBox="0 0 629.000000 524.000000"
 preserveAspectRatio="xMidYMid meet">

<g transform="translate(0.000000,524.000000) scale(0.100000,-0.100000)"
fill="#000000" stroke="none">
<path d="M2864 5120 c-18 -4 -61 -8 -97 -9 -35 -1 -79 -6 -98 -11 -19 -6 -50
-10 -71 -10 -20 0 -49 -5 -65 -12 -15 -6 -32 -10 -36 -10 -14 4 -182 -39 -207
-52 -14 -7 -38 -16 -55 -20 -49 -11 -168 -58 -197 -78 -14 -10 -31 -18 -37
-18 -16 0 -148 -68 -156 -80 -3 -5 -13 -10 -22 -10 -9 0 -37 -15 -62 -32 -26
-18 -64 -42 -86 -53 -52 -26 -131 -86 -128 -96 2 -5 -5 -9 -15 -9 -10 0 -35
-15 -55 -34 -20 -18 -52 -45 -72 -60 -60 -46 -255 -245 -255 -261 0 -8 -11
-22 -25 -31 -14 -9 -24 -22 -23 -28 2 -6 -1 -13 -7 -15 -19 -5 -38 -26 -66
-70 -29 -45 -30 -65 -4 -54 11 4 13 1 9 -11 -7 -18 -24 -22 -24 -6 0 6 -6 10
-14 10 -16 0 -73 -83 -122 -177 -19 -35 -46 -84 -60 -109 -14 -24 -23 -51 -20
-60 3 -8 2 -13 -3 -10 -10 6 -66 -112 -57 -121 3 -3 -2 -12 -10 -20 -8 -8 -11
-19 -8 -25 4 -6 2 -13 -4 -17 -20 -12 -52 -107 -40 -119 8 -8 4 -21 -15 -45
-17 -23 -30 -57 -37 -100 -5 -35 -17 -84 -25 -108 -9 -24 -15 -55 -13 -69 1
-14 -1 -30 -4 -36 -4 -5 -14 -71 -24 -145 -17 -139 -24 -159 -55 -159 -10 0
-20 -4 -23 -9 -3 -4 -17 -6 -31 -3 -15 2 -25 0 -25 -7 0 -7 -5 -9 -11 -5 -6 3
-24 -10 -41 -30 -32 -39 -48 -42 -29 -7 6 11 8 22 3 24 -9 6 -98 -16 -108 -26
-4 -4 -20 -7 -35 -7 -15 0 -31 -4 -34 -10 -3 -5 -17 -10 -31 -10 -46 0 -62
-16 -55 -52 7 -30 10 -33 41 -30 19 1 44 9 56 17 12 8 30 14 40 14 39 0 99 12
155 31 32 11 66 20 74 20 27 0 196 40 275 66 41 13 92 26 113 29 21 4 40 12
43 18 3 8 19 11 44 9 22 -2 61 3 87 11 82 27 145 44 226 62 42 9 77 21 77 26
0 4 6 6 13 4 18 -7 203 35 231 53 6 3 19 7 30 8 12 1 30 4 41 7 11 2 40 8 65
12 59 9 180 45 180 53 0 4 20 7 45 8 25 1 51 6 57 12 6 6 17 8 26 5 8 -4 21 2
28 12 8 10 14 14 14 8 0 -6 9 -9 20 -6 11 3 20 10 20 15 0 5 8 7 19 3 12 -3
21 0 25 10 7 19 32 20 39 0 5 -12 10 -12 34 0 15 8 48 17 73 21 28 4 51 14 62
28 10 11 18 15 18 9 0 -22 30 -14 30 8 0 12 5 19 13 16 6 -2 11 -10 9 -16 -3
-14 -1 -14 72 4 33 8 62 19 66 25 4 6 14 8 22 5 8 -3 51 3 94 15 44 11 88 23
99 25 96 21 155 39 155 46 0 5 11 7 25 3 19 -5 25 -2 25 10 0 9 7 16 16 16 9
0 12 -5 8 -11 -5 -9 1 -10 22 -4 16 4 55 13 87 20 33 7 64 21 72 31 8 11 14
14 15 7 0 -18 29 -16 36 2 4 8 10 15 16 15 5 0 6 -5 2 -11 -4 -7 0 -9 12 -6
11 3 79 20 152 37 90 22 132 37 132 46 0 17 17 18 24 2 3 -9 9 -7 20 6 9 12
16 15 16 7 0 -14 10 -13 165 26 55 13 129 31 165 39 247 55 426 104 438 121
10 13 16 14 19 6 8 -22 23 -14 40 22 9 19 23 37 30 39 16 6 10 -8 -15 -37 -8
-9 -13 -19 -10 -22 2 -3 40 4 84 14 43 11 149 36 234 56 85 20 159 40 165 43
13 9 111 32 155 36 19 2 62 11 95 21 33 9 80 21 105 26 82 16 90 19 90 34 0 9
6 12 15 9 8 -4 23 -3 33 1 9 5 24 7 33 6 9 -1 19 5 22 14 4 8 11 15 17 15 6 0
9 -4 5 -9 -10 -17 11 -20 37 -7 15 8 49 17 77 21 28 4 58 13 65 20 8 8 16 12
19 9 2 -3 25 0 51 7 48 12 57 29 36 69 -10 19 -23 18 -90 -7 -8 -4 -19 -5 -24
-4 -5 1 -16 -1 -25 -5 -9 -4 -29 -8 -45 -10 -16 -2 -43 -11 -59 -19 -16 -8
-33 -13 -37 -10 -3 2 -72 -12 -151 -31 l-144 -36 -32 37 c-17 20 -39 52 -48
72 -12 24 -21 33 -32 29 -11 -4 -13 -2 -9 9 8 21 -3 45 -20 45 -8 0 -14 7 -14
15 0 17 -66 111 -93 134 -14 11 -20 11 -32 1 -18 -15 -20 1 -3 18 9 9 3 21
-28 53 -105 110 -179 179 -191 179 -7 0 -13 6 -13 14 0 18 -72 76 -95 76 -9 0
-14 4 -10 9 8 14 -115 102 -300 218 -44 28 -112 55 -137 57 -16 0 -28 7 -28
13 0 19 -98 65 -121 58 -11 -4 -19 -2 -19 5 0 13 -89 54 -140 64 -19 4 -50 14
-67 22 -36 16 -208 56 -226 52 -7 -1 -23 4 -36 11 -13 7 -36 11 -52 9 -16 -3
-29 -1 -29 3 0 11 -133 27 -152 18 -11 -6 -18 -5 -20 3 -5 14 -320 20 -374 8z
m283 -154 c79 -2 146 -7 151 -10 4 -2 33 -7 64 -10 30 -2 84 -12 118 -21 34
-9 69 -14 76 -11 8 3 14 2 14 -3 0 -10 109 -35 117 -27 3 3 11 0 17 -8 6 -8
43 -24 81 -36 39 -13 94 -33 124 -46 67 -30 77 -30 85 1 4 14 11 25 16 25 10
0 3 -27 -12 -46 -11 -14 0 -22 85 -63 65 -31 69 -32 87 -16 18 17 19 16 17
-11 -2 -22 2 -29 15 -28 10 1 15 -2 12 -7 -2 -5 6 -11 20 -15 13 -3 34 -17 47
-30 12 -13 29 -24 37 -24 7 0 22 -10 33 -22 16 -20 20 -21 30 -8 9 13 10 12 5
-2 -4 -12 6 -26 32 -45 20 -15 61 -47 90 -71 43 -36 55 -42 67 -32 11 9 15 9
15 1 0 -6 -5 -11 -11 -11 -7 0 11 -23 40 -51 50 -51 52 -52 71 -34 22 19 42
13 22 -7 -7 -7 -12 -18 -12 -25 0 -13 112 -150 149 -183 9 -8 20 -23 24 -32 3
-10 16 -18 28 -18 15 0 19 -4 15 -16 -4 -10 11 -42 39 -84 25 -37 45 -74 45
-83 0 -9 -14 -17 -37 -21 -40 -7 -83 -21 -120 -38 -11 -6 -25 -8 -30 -5 -5 3
-15 2 -23 -3 -23 -14 -57 10 -81 58 -13 25 -32 47 -41 50 -10 2 -18 10 -18 17
0 7 -11 20 -25 29 -14 9 -23 21 -19 27 9 15 -103 120 -121 113 -11 -4 -14 -1
-13 12 4 28 -15 30 -28 5 -7 -13 -17 -28 -23 -34 -16 -16 -14 -67 3 -67 8 0
16 6 19 13 3 8 7 5 13 -7 5 -13 3 -21 -4 -24 -15 -5 -15 -29 0 -38 6 -4 17 1
25 11 11 16 13 16 13 3 0 -9 -5 -18 -12 -20 -6 -2 -8 -10 -4 -16 4 -7 16 -10
27 -7 15 5 19 1 19 -19 0 -20 5 -26 21 -26 17 0 20 -5 16 -21 -4 -13 2 -32 15
-49 26 -36 21 -65 -12 -66 -38 -1 -93 -15 -115 -28 -11 -7 -34 -16 -52 -19
-27 -5 -32 -3 -37 17 -3 13 -24 39 -46 57 -22 18 -40 38 -40 44 0 17 -79 95
-96 95 -10 0 -14 6 -10 15 10 28 -19 15 -36 -16 -24 -42 -23 -62 2 -54 14 4
20 2 20 -8 0 -9 -5 -17 -12 -19 -6 -2 -8 -10 -4 -17 5 -7 14 -10 21 -7 7 2 12
-3 11 -12 -1 -10 6 -16 17 -16 10 1 17 -5 17 -17 0 -11 7 -19 16 -19 8 0 13
-4 10 -9 -4 -5 -2 -21 3 -34 11 -29 -8 -53 -33 -44 -9 4 -25 -8 -41 -29 -15
-20 -30 -33 -33 -30 -3 3 3 15 14 27 l19 22 -35 -6 c-32 -5 -72 -14 -199 -46
-24 -7 -53 -17 -65 -23 -11 -6 -35 -11 -52 -10 -17 2 -53 -7 -79 -18 -27 -12
-55 -18 -62 -15 -8 3 -23 0 -34 -5 -26 -14 -166 -50 -195 -50 -29 0 -175 -35
-200 -48 -11 -5 -24 -8 -30 -5 -6 2 -16 -3 -23 -11 -6 -7 -21 -12 -31 -9 -13
4 -20 0 -20 -9 0 -10 -8 -13 -29 -10 -16 2 -47 -2 -68 -9 -21 -7 -44 -12 -50
-11 -7 2 -13 -4 -13 -13 0 -17 -16 -21 -22 -5 -4 12 -119 -5 -157 -24 -14 -7
-71 -23 -126 -36 -70 -16 -105 -29 -117 -44 -16 -19 -18 -19 -18 -3 0 13 -5
17 -17 13 -10 -3 -51 -13 -91 -22 -60 -14 -76 -22 -83 -41 -11 -29 -19 -30
-14 -2 3 15 0 19 -13 15 -9 -3 -77 -19 -150 -37 -115 -27 -135 -35 -142 -54
-5 -13 -14 -26 -20 -30 -9 -6 -9 -2 0 15 6 12 9 24 7 26 -7 7 -119 -23 -126
-33 -3 -4 -28 -9 -55 -11 -26 -1 -65 -10 -85 -19 -20 -10 -44 -16 -53 -15 -10
2 -18 -2 -18 -8 0 -7 -8 -9 -21 -5 -22 7 -105 -11 -126 -28 -17 -12 -43 -2
-43 18 0 11 -6 14 -25 9 -33 -8 -32 4 1 16 17 7 24 15 20 25 -3 8 -1 15 5 15
6 0 8 7 5 16 -3 8 -2 13 3 10 4 -3 16 23 26 57 21 75 32 106 78 217 19 47 38
92 41 100 3 8 13 25 22 38 16 21 16 22 -2 15 -17 -6 -17 -5 -5 11 8 9 20 15
27 12 15 -6 25 18 18 42 -5 13 -4 14 4 3 8 -11 12 -10 21 8 7 12 9 26 6 32 -9
13 14 41 27 33 5 -3 17 4 26 17 9 13 35 47 58 75 24 29 40 55 36 60 -4 4 -2 4
4 1 6 -4 19 2 28 12 10 10 14 21 9 23 -4 3 -3 3 4 2 12 -3 83 72 83 87 0 5 6
6 14 3 8 -3 20 3 27 13 8 10 26 24 40 31 14 8 31 29 38 48 7 19 17 34 24 34 8
0 8 -3 -1 -12 -7 -7 -12 -18 -12 -26 0 -10 10 -6 34 12 19 14 41 26 50 26 8 0
22 10 31 23 8 12 20 23 25 23 6 1 17 2 25 3 8 0 15 7 15 15 0 8 7 13 16 12 10
0 26 19 42 51 31 61 55 80 38 30 -6 -18 -15 -38 -19 -44 -11 -18 6 -16 70 5
50 16 68 35 41 44 -7 3 -2 7 10 10 19 5 22 3 16 -14 -5 -16 -2 -19 13 -16 10
2 17 11 15 20 -1 8 5 21 13 28 8 7 15 19 15 26 0 8 5 14 10 14 17 0 11 -42 -7
-57 -16 -12 -13 -13 27 -8 30 4 52 15 65 31 23 27 40 32 31 9 -7 -19 20 -19
99 0 33 8 72 14 86 15 20 0 28 6 33 25 4 14 11 25 16 25 6 0 10 -11 10 -25 0
-22 4 -25 35 -25 21 0 35 5 36 13 0 10 2 10 6 0 6 -16 35 -17 51 -1 9 9 12 9
12 0 0 -17 20 -15 43 6 19 16 20 16 14 0 -10 -28 14 -33 33 -8 l18 23 6 -21
c11 -35 46 -39 73 -8 14 17 23 22 23 13 0 -8 -8 -18 -17 -22 -17 -6 -17 -7 0
-17 15 -8 22 -6 33 11 19 26 34 27 34 1 0 -25 32 -42 63 -34 16 3 26 1 30 -9
3 -8 29 -20 59 -27 29 -7 59 -17 66 -23 9 -7 16 -7 20 -1 12 19 38 22 57 8 24
-18 13 -29 -14 -15 -13 7 -22 8 -26 1 -9 -15 57 -40 73 -27 9 7 16 7 24 -1 9
-9 9 -12 -2 -12 -11 0 -12 -2 -1 -12 10 -11 14 -10 22 5 12 21 29 22 29 2 0
-8 4 -15 9 -15 5 0 11 -9 14 -21 3 -11 19 -25 36 -32 17 -6 31 -15 31 -20 0
-5 9 -5 20 -2 13 4 20 2 20 -7 0 -17 60 -64 76 -60 7 1 15 -8 19 -20 6 -19 8
-20 12 -5 2 9 9 17 15 17 6 0 8 -9 5 -20 -3 -14 5 -29 29 -50 19 -16 39 -30
44 -30 12 0 35 36 45 68 6 21 4 23 -13 18 -17 -6 -19 -3 -15 14 6 24 -12 27
-25 4 -8 -15 -11 -15 -31 2 -11 10 -21 25 -21 33 0 11 4 11 19 -3 26 -23 39
-2 15 25 -22 25 -51 24 -59 -1 -3 -11 -11 -20 -16 -20 -15 0 -10 28 7 38 20
11 9 36 -12 28 -8 -3 -14 1 -14 9 0 23 -20 28 -36 9 -15 -18 -15 -18 -9 0 9
30 -46 73 -145 114 -46 19 -70 24 -70 13 0 -6 -10 -11 -21 -11 -18 0 -19 3 -9
15 15 18 8 29 -34 49 -46 22 -70 21 -62 -1 5 -15 4 -15 -9 1 -8 11 -15 23 -15
27 0 9 -117 49 -145 49 -12 0 -27 -6 -34 -12 -10 -11 -11 -10 -6 3 5 12 -1 18
-22 22 -15 3 -46 10 -68 16 -22 6 -55 11 -73 11 -30 0 -33 -2 -27 -22 l6 -23
-14 23 c-7 12 -16 20 -20 16 -3 -4 -12 -2 -20 4 -14 12 -224 12 -242 0 -6 -4
-17 -3 -25 2 -16 10 -40 2 -40 -14 0 -20 -31 -57 -42 -50 -6 4 -6 10 1 17 16
16 13 37 -4 37 -8 0 -15 -4 -15 -9 0 -5 -15 -6 -34 -1 -22 5 -57 1 -102 -10
-79 -19 -114 -38 -107 -56 2 -7 -5 -17 -16 -24 -18 -9 -21 -8 -21 10 0 11 5
20 12 20 6 0 9 2 6 5 -3 3 -17 1 -31 -4 -20 -8 -24 -15 -20 -32 4 -16 2 -20
-8 -17 -8 3 -13 11 -12 17 5 20 -39 12 -44 -8 -3 -12 -11 -17 -20 -14 -8 3
-24 1 -36 -5 -12 -6 -37 -16 -54 -24 -18 -7 -33 -19 -33 -25 0 -7 -11 -13 -25
-13 -26 0 -75 -40 -75 -61 0 -8 -5 -7 -16 2 -17 14 -33 1 -92 -76 -19 -25 -22
-27 -17 -7 8 26 2 27 -31 6 -14 -10 -23 -23 -20 -30 5 -12 -6 -18 -19 -11 -10
5 -114 -107 -119 -129 -4 -16 -14 -24 -29 -24 -21 0 -77 -57 -77 -79 0 -22
-24 -61 -42 -66 -10 -4 -18 -12 -18 -20 0 -8 -8 -16 -18 -20 -11 -3 -25 -18
-33 -33 -18 -37 -23 -50 -10 -32 5 8 13 11 17 7 4 -4 0 -15 -8 -24 -8 -10 -18
-27 -22 -38 -5 -14 -9 -16 -15 -7 -5 9 -11 5 -20 -14 -6 -15 -10 -29 -7 -32 3
-2 -5 -13 -17 -23 -16 -13 -18 -19 -7 -19 13 -1 13 -2 -1 -13 -18 -14 -80
-143 -72 -151 3 -3 2 -13 -2 -23 -4 -10 -10 -34 -12 -53 -2 -19 -8 -37 -12
-40 -11 -7 -31 -46 -31 -60 0 -7 7 -5 16 5 9 9 19 13 23 9 3 -4 0 -9 -6 -11
-7 -3 -13 -13 -13 -24 0 -10 -6 -19 -14 -19 -14 0 -26 -29 -26 -63 0 -10 5
-15 10 -12 15 9 0 -48 -14 -57 -6 -4 -27 -8 -46 -8 -19 0 -69 -9 -110 -20 -41
-11 -83 -20 -92 -20 -21 0 -23 22 -6 50 16 25 7 33 -26 21 -21 -9 -26 -8 -26
4 0 8 8 15 19 15 21 0 44 23 34 34 -4 4 -1 11 6 16 12 7 71 168 71 192 0 5 16
49 36 99 20 51 37 98 38 105 1 7 10 21 19 32 9 10 20 34 23 53 4 19 13 39 21
46 31 24 103 156 101 182 -3 21 2 27 22 29 17 2 41 24 75 69 28 36 58 73 68
82 9 8 17 24 17 34 0 10 4 16 8 13 13 -8 109 81 133 125 17 30 27 38 41 33 24
-7 48 12 49 40 0 11 3 16 5 9 6 -14 111 54 160 105 20 20 33 31 29 25 -10 -20
20 -15 39 6 10 11 15 25 11 30 -8 14 18 14 31 1 19 -19 64 13 95 66 16 29 36
57 44 64 13 10 15 9 15 -10 0 -13 -7 -32 -17 -42 -15 -17 -15 -18 5 -18 11 0
23 4 27 9 3 5 19 12 35 16 63 14 119 55 75 55 -25 0 -17 17 11 23 23 4 25 2
21 -20 -3 -18 -1 -23 10 -19 8 3 22 6 30 6 13 0 13 3 3 15 -11 13 -9 20 9 39
14 15 19 29 15 41 -6 15 -4 16 15 6 17 -10 19 -15 11 -31 -6 -11 -7 -20 -3
-20 4 0 -2 -6 -13 -14 -30 -22 -13 -27 49 -15 39 8 58 17 62 29 7 22 33 45 42
37 3 -4 0 -14 -8 -23 -12 -14 -8 -15 46 -9 55 6 138 25 181 42 12 4 15 3 10
-5 -4 -7 -1 -12 9 -12 9 0 23 16 31 35 18 43 34 46 29 5 -2 -16 0 -30 3 -31 4
0 20 -2 37 -4 18 -3 36 2 47 12 11 10 18 12 18 5 0 -16 43 -15 58 0 9 9 12 9
12 0 0 -19 32 -14 57 10 17 16 23 18 23 7 0 -8 -5 -20 -12 -27 -9 -9 -6 -12
14 -12 18 0 29 7 33 20 3 11 13 20 21 20 8 0 13 -4 9 -10 -7 -12 30 -50 49
-50 8 0 26 14 40 32 14 18 28 29 32 25 4 -4 -1 -16 -10 -26 -10 -11 -15 -25
-11 -30 8 -15 35 -14 35 0 0 12 29 38 43 39 4 0 7 -9 7 -20 0 -12 -7 -20 -17
-20 -9 0 -13 -3 -9 -7 8 -8 28 -13 81 -20 22 -3 47 -11 56 -19 8 -8 35 -18 60
-23 24 -5 53 -12 63 -16 16 -7 18 -5 14 13 -4 12 -2 22 3 22 5 0 9 -11 9 -25
0 -30 26 -44 43 -23 18 23 47 30 53 13 4 -8 10 -13 14 -10 11 7 23 -12 15 -25
-4 -6 -16 -3 -31 7 -18 11 -28 13 -36 5 -7 -7 2 -17 32 -32 30 -15 45 -19 53
-11 14 14 47 14 47 1 0 -5 -7 -10 -16 -10 -14 0 -14 -3 -4 -15 14 -17 45 -21
35 -5 -8 13 14 42 26 35 4 -3 6 -12 2 -20 -3 -9 1 -15 8 -15 11 0 11 -3 -1
-10 -8 -5 -11 -10 -6 -10 5 0 18 7 27 16 17 16 18 15 10 -14 -8 -27 -6 -31 28
-49 20 -11 42 -18 49 -16 7 3 11 -1 10 -7 -2 -7 3 -15 10 -17 6 -3 12 0 12 6
0 6 5 11 10 11 6 0 10 -8 10 -18 0 -10 18 -33 39 -50 42 -34 61 -40 61 -20 0
6 3 8 7 4 4 -4 8 -17 8 -28 0 -12 6 -23 14 -26 10 -3 12 1 8 17 -4 17 -2 21
11 19 11 -3 16 -12 14 -28 -2 -16 9 -35 37 -62 42 -40 48 -43 68 -30 16 10 54
102 47 113 -8 14 -24 11 -24 -6 0 -8 -5 -15 -11 -15 -6 0 -9 10 -7 23 1 12 -1
23 -5 25 -17 5 -27 1 -27 -12 0 -8 -7 -16 -15 -20 -22 -8 -19 20 5 44 19 19
19 20 -14 45 -42 32 -64 32 -72 0 -7 -27 -18 -32 -30 -13 -4 7 2 18 14 26 19
12 31 42 18 42 -2 0 -13 3 -23 6 -15 5 -15 4 -3 -5 9 -7 10 -11 3 -11 -12 0
-28 19 -28 34 0 21 -26 16 -36 -8 -13 -29 -35 -36 -24 -8 17 40 17 52 0 58 -9
4 -29 18 -43 30 -14 13 -29 24 -34 24 -5 0 -16 7 -25 15 -8 9 -28 19 -44 22
-16 3 -29 9 -29 14 0 5 -13 9 -30 9 -16 0 -30 5 -30 10 0 19 -22 10 -27 -10
-3 -13 -12 -20 -22 -17 -9 2 -14 10 -12 18 2 8 6 22 9 33 4 15 1 17 -18 11
-15 -5 -20 -4 -16 4 8 13 -45 41 -78 41 -19 0 -23 -4 -19 -21 4 -14 11 -18 22
-14 9 4 22 9 30 13 9 3 12 0 9 -9 -3 -8 -18 -14 -34 -14 -23 0 -32 7 -46 35
-16 31 -27 38 -100 62 -102 33 -105 33 -129 6 l-19 -23 6 29 c6 26 5 28 -15
21 -12 -4 -27 -2 -34 3 -17 13 -94 32 -145 35 -41 3 -43 2 -39 -20 5 -28 -9
-31 -18 -2 -5 15 -10 17 -20 9 -10 -8 -16 -7 -23 6 -7 13 -18 16 -46 11 -20
-3 -36 -2 -36 4 0 5 -7 9 -15 9 -8 0 -15 -4 -15 -10 0 -5 -7 -10 -16 -10 -8 0
-12 5 -9 10 3 6 -1 10 -9 10 -8 0 -18 -5 -22 -11 -3 -6 -10 -7 -15 -2 -10 10
-131 4 -125 -6 3 -4 1 -13 -5 -21 -7 -12 -9 -10 -9 8 0 15 -6 22 -19 22 -32 0
-51 -11 -51 -30 0 -26 -40 -74 -53 -61 -6 6 -4 15 7 26 32 32 8 58 -26 28 -19
-16 -21 -16 -15 -1 5 16 1 17 -41 12 -26 -4 -72 -13 -102 -20 -30 -8 -61 -14
-70 -14 -26 -1 -93 -37 -81 -44 18 -12 13 -36 -9 -36 -10 0 -24 -8 -30 -17 -8
-14 -9 -12 -4 12 4 17 12 33 18 37 16 11 -7 10 -37 -1 -19 -8 -23 -15 -20 -35
6 -31 -16 -36 -24 -6 -6 22 -8 23 -41 14 -17 -5 -21 -11 -16 -26 5 -17 2 -19
-30 -13 -28 6 -37 4 -42 -9 -3 -9 -17 -16 -30 -16 -35 0 -74 -21 -74 -41 0
-13 -8 -17 -35 -16 -34 1 -35 0 -92 -72 -10 -13 -14 -14 -22 -2 -6 9 -14 10
-27 3 -28 -15 -60 -52 -45 -52 7 0 9 -5 6 -10 -4 -6 -10 -8 -15 -5 -5 3 -18
-12 -30 -35 -11 -22 -25 -40 -30 -40 -6 0 -1 18 10 40 11 22 19 40 17 40 -9 0
-82 -63 -80 -69 1 -4 -7 -18 -18 -31 -15 -21 -19 -22 -19 -7 0 24 -121 -98
-139 -141 -11 -25 -19 -32 -33 -29 -23 6 -86 -56 -94 -93 -8 -40 -30 -74 -56
-87 -12 -7 -25 -23 -28 -35 -3 -13 -12 -23 -18 -23 -7 0 -22 -15 -33 -33 -17
-26 -18 -31 -5 -26 23 9 20 -19 -4 -41 -11 -10 -20 -26 -20 -37 0 -10 -7 -18
-15 -18 -8 0 -15 6 -15 13 0 6 -9 -2 -19 -20 -11 -17 -17 -40 -14 -51 3 -14
-2 -21 -17 -25 -18 -5 -21 -11 -16 -31 5 -19 2 -26 -8 -26 -8 0 -18 -10 -22
-22 -4 -13 -20 -50 -35 -82 -19 -40 -26 -63 -19 -71 6 -7 4 -19 -7 -34 -13
-19 -13 -25 -2 -32 10 -6 10 -9 2 -9 -7 0 -16 -18 -19 -40 -4 -22 -10 -37 -15
-35 -8 5 -22 -12 -25 -30 -1 -5 -5 -23 -9 -40 l-8 -30 22 28 c31 37 46 34 24
-5 -22 -40 -39 -59 -46 -52 -3 3 -8 -18 -12 -46 -4 -28 -4 -54 -1 -57 3 -4 6
1 6 10 0 10 5 17 11 17 7 0 8 -7 4 -17 -4 -10 -10 -27 -13 -38 -8 -30 -49 -62
-88 -69 -19 -4 -32 -11 -29 -16 3 -6 -1 -7 -10 -4 -11 5 -18 0 -21 -13 -6 -20
-44 -50 -44 -34 0 6 5 13 11 17 7 4 7 10 1 16 -6 6 -25 5 -52 -2 -23 -6 -43
-10 -45 -8 -7 7 -8 75 -2 103 7 31 13 65 26 148 8 46 7 47 -10 31 -20 -18 -23
-16 -13 10 3 9 12 16 20 16 7 0 16 12 20 28 3 15 10 42 14 59 5 18 6 42 3 54
-3 11 -1 24 5 28 13 8 75 191 67 199 -3 3 0 11 5 17 6 7 48 88 95 180 47 92
110 203 140 246 31 44 58 86 62 95 3 8 17 28 32 44 48 53 70 82 83 111 7 15
20 32 29 36 21 10 271 249 269 257 -1 4 1 12 3 19 3 7 6 5 6 -5 1 -13 22 -2
86 43 46 34 87 69 90 80 4 12 16 19 33 19 33 0 162 77 162 97 0 9 6 13 15 9 9
-3 30 1 48 8 17 8 53 24 79 35 26 12 51 21 54 21 3 0 22 7 42 16 21 9 55 25
77 35 22 9 69 25 105 34 36 9 74 21 84 27 41 22 185 43 359 54 48 2 96 8 107
12 11 4 37 6 57 5 21 -1 102 -4 180 -7z m753 -68 c0 -18 -2 -20 -9 -8 -6 8 -7
18 -5 22 9 14 14 9 14 -14z m36 -25 c-10 -10 -19 5 -10 18 6 11 8 11 12 0 2
-7 1 -15 -2 -18z m-1696 12 c0 -3 -9 -15 -20 -27 -15 -16 -20 -18 -20 -7 0 8
5 20 12 27 12 12 28 16 28 7z m-104 -71 c-10 -14 -20 -23 -23 -21 -6 6 30 57
36 51 2 -2 -4 -15 -13 -30z m970 -161 c-10 -10 -19 5 -10 18 6 11 8 11 12 0 2
-7 1 -15 -2 -18z m-186 2 c-7 -8 -16 -15 -21 -15 -5 0 -9 7 -9 15 0 9 9 15 21
15 18 0 19 -2 9 -15z m444 0 c3 -9 12 -12 22 -8 12 4 15 2 12 -8 -2 -8 -18
-15 -34 -17 -25 -3 -29 0 -29 23 0 27 19 34 29 10z m-734 -24 c-10 -20 -30
-29 -30 -14 0 10 33 44 37 39 3 -2 0 -14 -7 -25z m210 19 c0 -5 -7 -10 -15
-10 -8 0 -15 -5 -15 -11 0 -5 -5 -7 -11 -4 -6 5 -4 12 8 21 22 16 33 18 33 4z
m-1220 -10 c0 -5 -4 -10 -10 -10 -5 0 -10 5 -10 10 0 6 5 10 10 10 6 0 10 -4
10 -10z m1585 -10 c-3 -5 -13 -10 -21 -10 -8 0 -12 5 -9 10 3 6 13 10 21 10 8
0 12 -4 9 -10z m-318 -36 c-9 -9 -28 6 -21 18 4 6 10 6 17 -1 6 -6 8 -13 4
-17z m-85 -16 c-15 -15 -26 -4 -18 18 5 13 9 15 18 6 9 -9 9 -15 0 -24z m188
22 c0 -5 -5 -10 -11 -10 -5 0 -7 5 -4 10 3 6 8 10 11 10 2 0 4 -4 4 -10z m710
-65 c0 -8 -4 -15 -10 -15 -5 0 -7 7 -4 15 4 8 8 15 10 15 2 0 4 -7 4 -15z
m910 -4 c0 -6 -4 -13 -10 -16 -5 -3 -10 1 -10 9 0 9 5 16 10 16 6 0 10 -4 10
-9z m-2325 -20 c-3 -6 -11 -11 -17 -11 -6 0 -6 6 2 15 14 17 26 13 15 -4z
m-155 -40 c0 -6 -4 -13 -10 -16 -5 -3 -10 -15 -10 -26 0 -18 -25 -37 -35 -27
-8 8 30 77 43 78 6 0 12 -4 12 -9z m72 -21 c7 0 6 -5 -1 -14 -11 -14 -51 -11
-51 3 0 14 14 22 28 16 7 -3 18 -5 24 -5z m-172 -20 c0 -5 -5 -10 -11 -10 -5
0 -7 5 -4 10 3 6 8 10 11 10 2 0 4 -4 4 -10z m136 -57 c-10 -10 -19 5 -10 18
6 11 8 11 12 0 2 -7 1 -15 -2 -18z m-172 -9 c9 -22 -3 -32 -14 -14 -12 19 -12
30 -1 30 5 0 12 -7 15 -16z m866 -4 c0 -5 -4 -10 -10 -10 -5 0 -10 5 -10 10 0
6 5 10 10 10 6 0 10 -4 10 -10z m55 0 c-3 -5 -11 -10 -16 -10 -6 0 -7 5 -4 10
3 6 11 10 16 10 6 0 7 -4 4 -10z m355 0 c0 -5 8 -10 17 -10 20 0 9 -13 -15
-17 -12 -1 -18 5 -19 17 -1 11 2 20 8 20 5 0 9 -4 9 -10z m-580 -15 c0 -8 -4
-15 -10 -15 -5 0 -7 7 -4 15 4 8 8 15 10 15 2 0 4 -7 4 -15z m460 1 c0 -3 -4
-8 -10 -11 -5 -3 -10 -1 -10 4 0 6 5 11 10 11 6 0 10 -2 10 -4z m-1207 -16
c20 -1 20 -2 4 -11 -13 -7 -23 -6 -40 7 -16 12 -17 15 -4 10 10 -3 28 -6 40
-6z m887 -19 c0 -6 -4 -13 -10 -16 -5 -3 -10 1 -10 9 0 9 5 16 10 16 6 0 10
-4 10 -9z m-870 -26 c0 -8 -4 -15 -9 -15 -5 0 -13 -9 -16 -20 -7 -21 -25 -28
-25 -9 0 13 33 58 43 59 4 0 7 -7 7 -15z m2247 -26 c-14 -8 -15 -14 -7 -24 13
-15 0 -27 -18 -16 -9 6 -8 15 4 40 12 25 19 30 28 21 8 -8 6 -14 -7 -21z
m-587 7 c0 -3 -4 -8 -10 -11 -5 -3 -10 -1 -10 4 0 6 5 11 10 11 6 0 10 -2 10
-4z m696 -53 c17 -23 17 -33 0 -33 -8 0 -17 7 -20 16 -14 36 -2 46 20 17z
m-2526 -9 c0 -8 -5 -12 -10 -9 -6 4 -8 11 -5 16 9 14 15 11 15 -7z m496 4 c-3
-7 -9 -21 -12 -30 -4 -10 -13 -18 -21 -18 -12 0 -11 5 4 30 17 29 41 43 29 18z
m64 -17 c0 -11 -26 -22 -34 -14 -12 12 -5 23 14 23 11 0 20 -4 20 -9z m2530
-1 c0 -5 -5 -10 -11 -10 -5 0 -7 5 -4 10 3 6 8 10 11 10 2 0 4 -4 4 -10z
m-3748 -49 c-9 -16 -18 -28 -20 -27 -5 6 21 56 29 56 5 0 0 -13 -9 -29z m1046
-26 c-3 -3 -9 2 -12 12 -6 14 -5 15 5 6 7 -7 10 -15 7 -18z m2205 -7 c4 -12 4
-24 2 -27 -3 -2 -5 1 -5 7 0 7 -9 12 -20 12 -22 0 -27 15 -7 23 21 9 25 8 30
-15z m-3328 -7 c3 -5 1 -12 -5 -16 -5 -3 -10 1 -10 9 0 18 6 21 15 7z m1095
-1 c0 -5 -8 -10 -17 -10 -15 0 -16 2 -3 10 19 12 20 12 20 0z m-550 -46 c0 -8
-4 -12 -10 -9 -5 3 -10 10 -10 16 0 5 5 9 10 9 6 0 10 -7 10 -16z m2350 -4 c0
-5 -5 -10 -11 -10 -5 0 -7 5 -4 10 3 6 8 10 11 10 2 0 4 -4 4 -10z m-2280 -24
c0 -3 -4 -8 -10 -11 -5 -3 -10 -1 -10 4 0 6 5 11 10 11 6 0 10 -2 10 -4z
m2275 -6 c3 -5 -1 -10 -9 -10 -9 0 -16 5 -16 10 0 6 4 10 9 10 6 0 13 -4 16
-10z m-1925 -20 c0 -5 -2 -10 -4 -10 -3 0 -8 5 -11 10 -3 6 -1 10 4 10 6 0 11
-4 11 -10z m-500 -9 c0 -12 -20 -25 -27 -18 -7 7 6 27 18 27 5 0 9 -4 9 -9z
m80 -1 c0 -5 -3 -10 -8 -10 -4 0 -12 -10 -17 -22 -6 -13 -18 -24 -27 -26 -26
-5 -23 32 5 51 25 18 47 21 47 7z m2480 -59 c0 -6 -4 -13 -10 -16 -5 -3 -10 1
-10 9 0 9 5 16 10 16 6 0 10 -4 10 -9z m-2546 -22 c5 -5 7 -11 5 -14 -7 -7
-59 18 -59 28 0 10 40 -1 54 -14z m-84 -23 c0 -2 -7 -9 -15 -16 -12 -10 -15
-10 -15 4 0 9 7 16 15 16 8 0 15 -2 15 -4z m46 -32 c-4 -9 -9 -15 -11 -12 -3
3 -3 13 1 22 4 9 9 15 11 12 3 -3 3 -13 -1 -22z m354 -43 c-6 -12 -20 -21 -33
-21 -21 1 -21 2 7 26 32 28 43 26 26 -5z m-50 15 c0 -3 -4 -8 -10 -11 -5 -3
-10 -1 -10 4 0 6 5 11 10 11 6 0 10 -2 10 -4z m-870 -20 c0 -3 -4 -8 -10 -11
-5 -3 -10 -1 -10 4 0 6 5 11 10 11 6 0 10 -2 10 -4z m470 -25 c0 -5 -9 -11
-20 -14 -20 -5 -26 3 -13 16 9 10 33 8 33 -2z m400 -11 c8 -5 12 -11 9 -14 -3
-3 -14 1 -25 9 -21 16 -8 20 16 5z m-404 -76 c-4 -9 -9 -15 -11 -12 -3 3 -3
13 1 22 4 9 9 15 11 12 3 -3 3 -13 -1 -22z m309 -34 c3 -5 -3 -10 -15 -10 -12
0 -18 5 -15 10 3 6 10 10 15 10 5 0 12 -4 15 -10z m-406 -29 c-14 -40 -38 -60
-49 -41 -10 17 24 70 45 70 11 0 12 -6 4 -29z m47 -19 c-8 -9 -18 -13 -22 -10
-3 4 3 15 13 25 10 10 20 15 22 10 2 -5 -4 -16 -13 -25z m-476 -2 c0 -5 -5
-10 -11 -10 -5 0 -7 5 -4 10 3 6 8 10 11 10 2 0 4 -4 4 -10z m360 -10 c0 -5
-5 -10 -11 -10 -5 0 -7 5 -4 10 3 6 8 10 11 10 2 0 4 -4 4 -10z m400 -43 c0
-19 -30 -58 -41 -52 -5 4 -2 19 6 36 16 30 35 39 35 16z m2260 -12 c-7 -9 -15
-13 -17 -11 -7 7 7 26 19 26 6 0 6 -6 -2 -15z m-2630 1 c0 -11 -19 -15 -25 -6
-3 5 1 10 9 10 9 0 16 -2 16 -4z m-46 -52 c9 -22 7 -36 -3 -30 -4 3 -28 -22
-52 -56 -45 -64 -65 -67 -29 -4 11 20 20 46 20 57 0 11 4 17 10 14 5 -3 15 3
22 15 15 24 24 25 32 4z m2606 -4 c0 -5 -5 -10 -11 -10 -5 0 -7 5 -4 10 3 6 8
10 11 10 2 0 4 -4 4 -10z m-3090 -14 c0 -7 -7 -19 -15 -26 -16 -13 -20 -3 -9
24 8 20 24 21 24 2z m2860 -1 c0 -2 -9 -9 -20 -15 -12 -6 -20 -7 -20 -1 0 5 8
12 18 14 9 3 18 5 20 6 1 0 2 -1 2 -4z m-2366 -62 c-8 -35 -29 -58 -43 -49
-16 10 -13 26 4 26 8 0 15 8 15 18 0 20 8 32 22 32 5 0 5 -12 2 -27z m336 12
c0 -8 -4 -15 -9 -15 -4 0 -21 -20 -37 -45 -15 -25 -31 -45 -36 -45 -7 0 14 50
40 98 14 25 42 30 42 7z m1881 -28 c-10 -9 -11 -8 -5 6 3 10 9 15 12 12 3 -3
0 -11 -7 -18z m-1880 -41 c-10 -25 -41 -37 -41 -16 0 6 6 10 14 10 7 0 16 10
19 22 4 12 9 20 12 16 3 -3 1 -17 -4 -32z m1509 -5 c0 -12 -20 -25 -27 -18 -7
7 6 27 18 27 5 0 9 -4 9 -9z m-1890 -26 c-17 -20 -50 -19 -50 1 0 11 6 15 20
11 11 -3 23 -1 26 5 3 5 8 7 11 4 3 -3 0 -12 -7 -21z m-477 -4 c-3 -11 -14
-28 -25 -38 -21 -18 -21 -18 -14 12 7 27 21 44 38 45 3 0 4 -9 1 -19z m2378
-4 c-10 -9 -11 -8 -5 6 3 10 9 15 12 12 3 -3 0 -11 -7 -18z m-1551 -17 c0 -5
-9 -10 -20 -10 -11 0 -20 5 -20 10 0 6 9 10 20 10 11 0 20 -4 20 -10z m-336
-15 c-6 -16 -24 -21 -24 -7 0 11 11 22 21 22 5 0 6 -7 3 -15z m-69 -25 c-5 -8
-11 -8 -17 -2 -6 6 -7 16 -3 22 5 8 11 8 17 2 6 -6 7 -16 3 -22z m415 10 c0
-5 -5 -10 -11 -10 -5 0 -7 5 -4 10 3 6 8 10 11 10 2 0 4 -4 4 -10z m-50 -20
c0 -5 -4 -10 -10 -10 -5 0 -10 5 -10 10 0 6 5 10 10 10 6 0 10 -4 10 -10z
m-383 -37 c-9 -9 -20 -13 -24 -9 -4 4 -1 11 7 16 25 16 35 11 17 -7z m363 -3
c0 -5 -5 -10 -11 -10 -5 0 -7 5 -4 10 3 6 8 10 11 10 2 0 4 -4 4 -10z m-320
-12 c0 -25 -15 -36 -58 -43 -34 -5 -41 -4 -37 8 4 8 15 12 28 10 14 -3 30 3
41 16 22 24 26 26 26 9z m360 -7 c0 -14 -22 -28 -52 -33 -37 -7 -35 3 5 23 39
20 47 22 47 10z m-780 -15 c0 -8 -4 -17 -9 -21 -12 -7 -24 12 -16 25 9 15 25
12 25 -4z m-30 -52 c0 -8 -5 -12 -10 -9 -6 4 -8 11 -5 16 9 14 15 11 15 -7z
m420 2 c0 -3 -4 -8 -10 -11 -5 -3 -10 -1 -10 4 0 6 5 11 10 11 6 0 10 -2 10
-4z m-30 -41 c0 -8 -7 -15 -15 -15 -9 0 -12 6 -9 15 4 8 10 15 15 15 5 0 9 -7
9 -15z m360 -23 c0 -11 -41 -34 -48 -28 -3 4 3 13 14 21 21 16 34 19 34 7z
m-385 -47 c-33 -27 -41 -29 -50 -15 -6 10 41 39 65 40 9 0 3 -10 -15 -25z
m-385 -15 c0 -5 -5 -10 -11 -10 -5 0 -7 5 -4 10 3 6 8 10 11 10 2 0 4 -4 4
-10z m757 -32 c-22 -14 -28 -8 -16 13 9 17 13 19 20 8 5 -8 3 -16 -4 -21z
m-387 -72 l-22 -21 7 25 c4 14 13 31 19 39 9 12 12 11 14 -4 2 -9 -6 -27 -18
-39z m-360 -76 c0 -5 -4 -10 -10 -10 -5 0 -10 5 -10 10 0 6 5 10 10 10 6 0 10
-4 10 -10z m-200 -144 c0 -3 -4 -8 -10 -11 -5 -3 -10 -1 -10 4 0 6 5 11 10 11
6 0 10 -2 10 -4z"/>
<path d="M5485 3736 c-68 -19 -67 -17 -60 -130 4 -55 8 -130 10 -166 3 -36 7
-101 10 -145 6 -90 14 -266 19 -400 2 -49 9 -109 15 -131 l11 -42 48 12 47 13
0 82 c0 97 4 102 95 121 55 12 62 11 80 -5 11 -10 20 -22 20 -26 0 -5 12 -33
26 -64 21 -43 31 -55 50 -55 12 0 26 5 29 10 3 6 15 10 25 10 40 0 40 30 0
104 -20 39 -41 82 -45 96 -4 14 -22 57 -39 95 -18 39 -38 86 -46 105 -7 19
-19 42 -25 50 -17 22 -45 86 -45 103 0 9 -4 18 -9 21 -5 3 -28 52 -52 108 -23
57 -53 123 -66 147 -13 24 -23 49 -23 56 0 7 -8 19 -17 27 -15 12 -25 13 -58
4z m142 -463 c19 -39 33 -80 31 -90 -4 -21 -64 -41 -79 -26 -6 6 -16 50 -21
97 -17 143 6 150 69 19z"/>
<path d="M5164 3671 c-53 -13 -56 -18 -50 -80 3 -31 8 -99 11 -151 6 -100 21
-298 25 -315 9 -41 -17 -64 -27 -24 -3 12 -28 64 -54 116 -27 52 -49 99 -49
105 0 10 -7 27 -54 130 -15 32 -32 75 -39 95 -12 37 -14 38 -59 39 -35 0 -53
-4 -65 -18 -16 -18 -16 -21 1 -56 20 -41 31 -66 71 -162 14 -36 35 -83 45
-105 10 -22 28 -62 40 -90 12 -27 27 -63 35 -80 29 -66 58 -132 72 -165 8 -19
23 -53 34 -76 10 -23 19 -46 19 -51 0 -14 48 -104 67 -125 11 -12 21 -14 45
-8 61 18 61 19 53 190 -4 85 -8 157 -10 160 -2 3 -6 66 -10 140 -3 74 -8 160
-10 190 -3 30 -7 102 -10 160 -3 58 -8 119 -11 135 -6 31 -22 56 -33 54 -3 -1
-20 -4 -37 -8z"/>
<path d="M4517 3510 c-32 -4 -64 -13 -70 -19 -6 -6 -21 -11 -34 -11 -45 0 -46
-28 -5 -185 26 -99 76 -308 137 -568 33 -140 52 -200 63 -206 11 -6 32 -4 57
5 22 7 41 14 43 14 9 0 -2 85 -23 172 -21 86 -23 105 -11 116 18 19 48 0 66
-42 7 -17 23 -44 35 -61 12 -16 32 -49 43 -71 33 -65 47 -75 95 -68 78 12 80
27 19 123 -20 31 -55 92 -78 135 -38 73 -41 81 -28 101 9 14 16 57 18 111 6
113 -19 225 -76 341 -19 38 -82 102 -111 113 -31 11 -53 11 -140 0z m165 -245
c36 -36 54 -122 34 -168 -12 -30 -20 -36 -56 -42 -25 -4 -46 -3 -52 3 -11 11
-47 154 -48 190 0 44 83 56 122 17z"/>
<path d="M4230 3433 c-30 -8 -69 -20 -87 -28 -17 -8 -47 -15 -66 -15 -20 0
-47 -4 -61 -10 -33 -12 -35 -55 -6 -140 11 -33 22 -76 25 -96 7 -54 47 -217
56 -229 7 -10 64 -243 74 -302 10 -64 52 -197 64 -201 6 -2 18 1 25 8 8 6 29
12 48 13 18 1 39 6 46 11 7 4 27 9 45 12 122 15 147 26 147 69 0 30 -37 166
-48 177 -7 7 -44 2 -106 -12 -111 -25 -118 -23 -135 46 -16 64 -9 80 47 93
126 32 122 29 122 62 0 42 -30 157 -44 168 -8 7 -25 7 -47 1 -71 -18 -135 -22
-146 -8 -15 18 -33 87 -27 103 3 8 46 23 100 36 52 12 97 25 100 30 3 5 0 28
-7 51 -6 24 -11 56 -11 73 1 33 -24 91 -41 98 -7 2 -37 -2 -67 -10z"/>
<path d="M3725 3323 c-54 -13 -90 -85 -93 -183 -2 -52 42 -254 64 -292 5 -9
28 -36 51 -61 32 -35 56 -49 112 -67 106 -34 145 -92 99 -147 -22 -27 -102 -8
-151 35 -26 23 -35 6 -42 -80 l-6 -77 35 -39 c47 -51 126 -86 175 -77 66 12
88 31 111 92 19 50 21 72 17 153 -5 93 -40 230 -58 230 -5 0 -9 9 -9 19 0 20
-53 72 -98 94 -15 8 -50 22 -78 31 -63 21 -84 42 -91 95 -5 37 -3 41 22 51 24
9 37 7 79 -14 28 -14 54 -22 58 -18 4 4 8 44 10 89 3 75 1 84 -21 107 -48 51
-122 74 -186 59z"/>
<path d="M3410 3236 c-25 -7 -54 -17 -65 -23 -11 -6 -46 -13 -78 -16 -65 -6
-87 -19 -87 -51 0 -33 211 -899 223 -914 7 -9 20 -11 36 -7 14 3 44 10 66 16
71 18 129 30 170 35 69 8 72 18 45 134 -13 56 -27 103 -31 106 -4 2 -53 -7
-110 -21 -73 -18 -106 -22 -115 -14 -19 16 -38 117 -25 133 6 7 47 21 91 31
55 13 84 24 91 37 10 19 -21 162 -40 181 -8 8 -38 6 -103 -6 -106 -19 -109
-17 -126 53 -14 58 -9 63 102 88 49 12 94 26 100 32 10 10 -16 167 -35 203
-11 20 -44 21 -109 3z"/>
<path d="M2905 3118 c-66 -12 -126 -28 -145 -38 -20 -10 -14 -88 10 -150 10
-25 23 -78 29 -118 6 -40 16 -80 21 -90 13 -22 50 -173 50 -204 0 -12 16 -84
35 -158 20 -74 37 -148 40 -164 3 -16 12 -40 21 -54 13 -20 21 -23 46 -18 66
13 69 27 33 166 -29 111 -31 138 -9 147 16 6 64 -32 64 -52 0 -6 8 -20 18 -31
10 -10 39 -52 65 -91 44 -68 49 -73 82 -73 73 0 91 28 55 85 -11 17 -26 45
-34 63 -9 18 -26 48 -38 65 -13 18 -32 52 -44 77 -19 41 -20 49 -7 85 7 22 14
78 14 125 0 112 -23 207 -79 318 -24 48 -96 112 -126 112 -13 0 -30 2 -38 4
-7 2 -35 -1 -63 -6z m158 -266 c25 -42 34 -140 15 -165 -18 -24 -95 -42 -113
-27 -8 6 -23 52 -34 102 -20 86 -20 92 -4 110 13 15 28 18 67 16 45 -3 52 -7
69 -36z"/>
<path d="M2210 2936 c-41 -11 -45 -15 -48 -46 -3 -31 22 -569 33 -705 2 -27 5
-86 6 -130 2 -125 3 -129 57 -121 26 3 50 10 56 16 12 12 15 96 5 132 -5 17
-3 30 4 36 18 14 138 41 154 35 8 -3 28 -36 45 -74 16 -37 37 -70 45 -73 8 -3
32 0 54 7 40 12 41 12 34 51 -3 22 -24 77 -45 122 -22 45 -40 86 -40 91 0 6
-18 47 -40 92 -22 45 -40 83 -40 86 0 5 -78 176 -90 197 -6 10 -10 25 -10 33
0 8 -4 15 -10 15 -5 0 -10 6 -10 14 0 8 -6 27 -14 43 -8 15 -30 62 -50 105
-19 42 -39 78 -43 81 -4 2 -28 -1 -53 -7z m110 -391 c5 -14 19 -44 30 -67 23
-48 37 -118 24 -118 -5 0 -19 -3 -31 -6 -18 -5 -25 -1 -33 22 -16 42 -25 194
-11 194 6 0 16 -11 21 -25z"/>
<path d="M1755 2837 c-30 -10 -46 -23 -69 -60 -27 -44 -29 -55 -28 -131 3
-233 98 -391 253 -420 46 -8 76 -37 85 -81 14 -75 -66 -98 -142 -40 -28 21
-52 31 -55 23 -9 -31 -8 -147 2 -171 26 -63 99 -107 176 -107 67 0 93 17 125
79 24 50 26 62 22 148 -4 97 -35 214 -75 279 -18 30 -79 84 -94 84 -4 0 -21 6
-38 14 -18 8 -48 19 -68 25 -67 21 -89 123 -31 138 19 4 40 -1 73 -20 34 -19
49 -23 58 -14 11 11 16 153 5 181 -8 21 -92 73 -129 79 -16 3 -48 0 -70 -6z
m115 -477 c0 -5 -5 -10 -11 -10 -5 0 -7 5 -4 10 3 6 8 10 11 10 2 0 4 -4 4
-10z"/>
<path d="M1360 2743 c-58 -11 -100 -82 -105 -177 -3 -62 31 -230 60 -291 29
-63 130 -136 210 -151 70 -13 101 -114 44 -141 -22 -11 -34 -10 -70 2 -24 9
-51 25 -61 37 -27 36 -45 10 -47 -68 -1 -36 -2 -69 -3 -73 -4 -32 38 -75 107
-110 36 -18 58 -22 96 -19 58 6 84 26 112 88 26 57 29 237 4 291 -9 19 -19 45
-23 59 -11 40 -51 96 -86 123 -18 14 -66 38 -106 53 -98 36 -131 80 -102 135
14 26 61 25 110 -3 21 -13 42 -19 46 -15 4 4 10 45 12 92 l4 84 -33 30 c-58
54 -99 66 -169 54z m110 -487 c0 -3 -4 -8 -10 -11 -5 -3 -10 -1 -10 4 0 6 5
11 10 11 6 0 10 -2 10 -4z"/>
<path d="M6015 2659 c-33 -5 -67 -12 -75 -15 -8 -3 -51 -14 -95 -24 -44 -10
-125 -30 -180 -45 -55 -14 -122 -30 -150 -35 -65 -11 -267 -68 -274 -78 -4 -4
-26 -8 -51 -10 -25 -1 -90 -14 -145 -28 -247 -64 -333 -85 -375 -94 -94 -18
-255 -64 -261 -73 -4 -5 -11 -7 -16 -4 -6 4 -50 -3 -99 -15 -67 -16 -94 -28
-111 -47 -12 -14 -22 -21 -23 -16 0 6 5 16 12 23 17 17 15 17 -160 -28 -86
-21 -215 -53 -286 -70 -71 -17 -134 -35 -141 -40 -6 -5 -27 -10 -46 -11 -63
-3 -154 -32 -181 -57 -16 -14 -28 -21 -28 -15 0 6 6 13 13 16 6 2 10 7 7 10
-3 3 -75 -12 -160 -33 -85 -21 -213 -53 -285 -70 -71 -17 -145 -38 -162 -46
-18 -8 -39 -14 -45 -12 -23 4 -143 -25 -159 -38 -9 -8 -19 -11 -22 -8 -12 12
-127 -18 -127 -32 0 -8 -4 -14 -10 -14 -5 0 -16 -13 -25 -30 -18 -35 -19 -44
-4 -34 7 4 29 8 50 10 51 4 140 34 134 44 -3 5 -1 11 5 15 5 3 10 -1 10 -9 0
-18 25 -15 130 14 36 10 94 24 130 31 36 6 73 19 83 27 11 10 17 11 17 3 0 -8
6 -9 18 -3 9 5 46 15 82 22 36 7 71 17 77 23 7 5 19 7 27 4 8 -3 20 1 26 8 7
8 16 12 22 9 5 -3 15 0 23 6 8 7 24 10 35 7 11 -3 22 -1 25 4 3 4 12 6 20 2 9
-3 21 -1 28 5 6 5 26 13 44 17 17 3 34 14 36 23 4 15 5 15 6 -1 1 -13 7 -17
19 -13 9 3 35 10 57 15 105 26 120 31 123 41 3 8 8 8 18 -1 11 -9 16 -6 25 15
15 32 29 34 21 4 -5 -22 -4 -22 14 -6 13 12 24 14 36 7 11 -6 21 -5 30 3 7 7
29 14 48 16 19 2 62 11 95 21 134 41 138 42 295 76 14 3 30 13 36 21 7 8 14
11 15 6 5 -11 74 -1 172 25 55 15 67 21 63 36 -3 12 2 17 15 17 12 0 16 -5 13
-15 -4 -8 -1 -15 5 -15 7 0 14 7 18 16 4 11 8 12 13 4 6 -9 13 -9 30 0 35 19
43 -1 21 -53 -11 -26 -25 -66 -31 -89 -13 -48 -50 -146 -86 -225 -13 -28 -24
-59 -24 -67 0 -9 -4 -16 -10 -16 -5 0 -14 -10 -21 -22 -10 -18 -9 -20 5 -15 9
4 16 2 16 -3 0 -5 -11 -12 -25 -16 -29 -7 -59 -56 -60 -94 0 -17 -5 -25 -17
-24 -10 1 -43 -30 -80 -75 -34 -42 -69 -81 -77 -87 -8 -6 -11 -16 -7 -22 4 -8
2 -10 -7 -6 -14 5 -87 -69 -87 -87 0 -5 -6 -6 -13 -3 -20 7 -101 -64 -110 -97
-4 -16 -12 -29 -19 -29 -7 0 -6 5 2 15 24 29 4 37 -26 11 -17 -14 -43 -30 -58
-35 -14 -6 -26 -17 -26 -26 0 -11 -6 -14 -24 -9 -17 4 -27 1 -33 -11 -6 -9
-14 -16 -19 -14 -5 1 -19 -17 -32 -39 -23 -41 -42 -54 -42 -29 0 7 5 18 12 25
18 18 4 24 -28 11 -97 -40 -111 -50 -81 -62 6 -3 2 -6 -10 -6 -17 -1 -21 3
-16 16 5 13 2 15 -11 10 -10 -4 -20 -7 -22 -7 -2 0 -4 -6 -4 -13 0 -18 -24
-67 -32 -67 -5 0 -8 11 -8 25 0 14 5 25 10 25 6 0 10 5 10 11 0 7 -14 8 -42 4
-45 -7 -63 -18 -63 -37 0 -6 -6 -13 -13 -16 -8 -2 -10 2 -5 14 6 15 1 16 -43
9 -27 -4 -58 -8 -69 -10 -44 -5 -65 -17 -65 -37 0 -12 -3 -18 -7 -14 -4 4 -8
15 -8 23 0 29 -20 24 -34 -9 l-14 -33 -4 27 -4 27 -87 -1 c-65 -1 -90 -6 -100
-17 -12 -14 -13 -13 -9 6 6 27 -9 30 -34 7 -16 -14 -18 -14 -24 5 -8 27 -42
27 -72 -1 -13 -12 -23 -16 -23 -10 0 6 5 14 10 17 6 3 10 10 10 16 0 15 -20
10 -43 -12 l-22 -20 -3 25 c-3 27 -38 44 -67 32 -8 -3 -18 1 -23 9 -4 8 -31
21 -59 28 -46 12 -53 12 -56 -2 -3 -10 -5 -8 -6 7 -1 21 -31 33 -31 12 0 -5
-5 -10 -11 -10 -6 0 -9 7 -5 15 8 21 -42 45 -79 37 -26 -4 -28 -3 -18 10 7 8
10 18 6 21 -11 12 -21 7 -26 -13 -8 -30 -30 -25 -25 5 4 20 2 23 -8 15 -9 -9
-13 -6 -16 10 -3 22 -88 79 -88 60 0 -6 -4 -10 -10 -10 -5 0 -10 8 -10 18 0
23 -56 66 -76 58 -9 -3 -14 1 -14 14 0 10 -5 22 -12 26 -8 5 -9 0 -5 -15 3
-14 1 -21 -6 -18 -7 2 -12 13 -12 25 0 19 -59 82 -77 82 -11 0 -35 -40 -42
-72 -6 -28 8 -40 17 -15 3 6 6 2 6 -10 1 -27 17 -38 25 -18 3 8 10 15 16 15
13 0 13 -27 -1 -32 -17 -6 0 -34 28 -47 28 -13 39 -7 45 24 5 19 5 19 13 1 6
-13 3 -21 -9 -28 -20 -11 -12 -28 15 -28 10 0 19 -7 19 -15 0 -20 10 -19 27 3
13 16 14 15 9 -8 -4 -22 2 -30 52 -61 104 -67 152 -84 167 -59 10 17 26 0 20
-21 -4 -11 -2 -19 5 -19 7 0 23 -9 37 -20 31 -24 68 -27 59 -5 -9 25 10 17 22
-9 7 -17 29 -29 81 -46 69 -23 71 -23 91 -5 15 13 19 15 15 4 -4 -10 5 -19 29
-27 68 -25 166 -39 166 -24 0 12 32 11 41 -1 11 -15 242 -13 247 1 3 10 7 9
16 -3 14 -20 46 -10 46 15 0 19 37 57 46 47 4 -4 1 -13 -5 -21 -19 -23 -7 -31
41 -30 47 1 86 8 165 30 40 12 52 20 55 37 2 12 12 23 22 25 15 3 18 0 14 -16
-5 -17 -3 -19 16 -13 14 6 20 15 18 30 -2 11 2 21 7 21 6 0 11 -7 11 -15 0
-22 37 -18 43 4 3 14 11 17 29 14 15 -3 29 2 37 11 8 9 24 16 37 16 13 0 29 9
36 20 7 11 21 20 31 20 35 0 58 20 52 43 -4 16 -4 18 3 8 7 -9 11 -10 17 -2 3
7 14 9 24 6 17 -5 69 44 92 86 5 11 15 19 21 19 9 0 9 -3 0 -12 -20 -20 -14
-28 12 -17 13 6 29 22 35 35 6 13 16 24 24 24 15 0 100 85 117 118 6 13 17 21
25 19 17 -7 52 34 75 89 11 24 28 49 39 56 12 7 21 18 21 25 0 7 4 13 9 13 21
0 41 32 35 56 -3 13 -2 24 3 24 6 0 15 11 21 25 6 14 17 24 23 23 7 -2 15 10
20 25 4 16 13 35 20 44 7 8 14 22 15 31 2 8 7 18 12 21 15 10 53 104 57 141 2
20 9 48 14 64 15 37 14 46 -4 46 -8 0 -15 5 -15 10 0 14 13 13 28 -2 10 -10
15 -10 22 2 5 8 10 23 10 34 0 15 -3 16 -15 6 -21 -18 -19 3 4 32 11 13 23 36
26 51 4 14 12 30 18 35 13 10 226 66 232 60 7 -7 7 -84 0 -102 -5 -11 -3 -21
4 -26 10 -5 9 -10 -1 -21 -27 -28 -63 -133 -61 -181 0 -27 -3 -48 -8 -48 -5 0
-9 6 -9 13 0 8 -4 7 -10 -3 -6 -8 -7 -27 -4 -42 3 -17 1 -28 -5 -28 -6 0 -19
-17 -28 -37 -10 -21 -23 -45 -29 -53 -7 -8 -26 -41 -43 -73 -31 -58 -33 -90
-5 -66 12 10 13 9 8 -5 -3 -9 -17 -16 -29 -16 -18 0 -34 -16 -69 -73 -25 -41
-46 -81 -46 -90 0 -10 -5 -17 -11 -17 -5 0 -7 6 -4 13 4 6 -3 1 -14 -12 -12
-13 -21 -29 -21 -36 0 -7 -6 -15 -14 -18 -8 -3 -16 -16 -18 -29 -2 -14 -10
-23 -20 -23 -9 0 -52 -36 -95 -80 -43 -44 -95 -95 -116 -114 -20 -19 -37 -37
-37 -41 0 -4 -13 -13 -30 -20 -25 -10 -29 -17 -24 -36 5 -18 2 -24 -10 -24 -9
0 -16 7 -16 15 0 22 -16 18 -37 -8 -10 -12 -38 -32 -63 -44 -64 -32 -113 -60
-128 -73 -7 -6 -31 -18 -54 -26 -23 -8 -50 -22 -60 -31 -10 -9 -28 -18 -41
-19 -12 -1 -74 -20 -137 -42 -63 -22 -128 -42 -144 -46 -17 -4 -36 -15 -43
-24 -8 -12 -12 -13 -13 -4 0 23 -91 4 -117 -24 -14 -15 -24 -20 -29 -13 -3 6
0 15 7 20 10 7 6 8 -11 4 -14 -3 -42 -7 -62 -9 -41 -4 -68 -21 -68 -42 0 -8
-9 -19 -20 -26 -11 -7 -20 -22 -20 -32 0 -14 -3 -17 -11 -9 -7 7 -4 21 10 47
27 46 27 64 1 41 -19 -17 -21 -17 -38 -2 -26 24 -41 21 -52 -8 -5 -14 -16 -25
-25 -25 -18 0 -19 12 -4 27 7 7 -3 13 -36 17 -36 6 -51 4 -64 -8 -22 -20 -35
-21 -28 -2 7 18 -80 33 -96 17 -15 -15 -28 -14 -24 1 2 12 -89 31 -105 22 -4
-3 -8 -1 -8 4 0 5 -12 12 -27 15 -16 3 -39 8 -53 12 -14 4 -34 8 -45 9 -11 1
-33 8 -48 16 -22 11 -33 11 -48 2 -26 -16 -28 -16 -39 13 -11 28 -41 33 -60
10 -16 -19 -33 -8 -27 17 7 26 -58 56 -85 39 -24 -15 -28 -14 -28 9 0 22 -65
70 -99 73 -11 1 -21 5 -21 9 0 5 -12 14 -27 21 -15 6 -37 21 -48 32 -25 23
-129 88 -142 88 -4 0 -14 8 -21 18 -7 11 -21 19 -31 19 -23 0 -71 -24 -82 -42
-7 -10 -9 -9 -9 3 0 9 12 22 28 29 57 29 57 29 -25 106 -42 41 -83 74 -90 74
-8 0 -18 11 -23 25 -5 14 -14 25 -20 25 -5 0 -10 6 -10 14 0 8 -8 21 -18 28
-11 7 -24 23 -31 36 -9 16 -18 21 -32 17 -18 -6 -18 -5 -1 24 9 17 22 29 28
27 7 -3 51 4 100 15 48 10 96 19 105 19 18 0 69 -41 69 -55 0 -18 84 -106 96
-101 9 3 14 -2 14 -14 0 -11 5 -20 10 -20 6 0 10 6 10 14 0 7 7 19 15 26 8 7
15 26 15 43 0 24 -3 28 -12 19 -16 -16 -28 -15 -28 3 0 8 5 15 11 15 5 0 7 5
4 11 -4 6 -14 8 -22 5 -11 -4 -13 -1 -8 14 5 16 2 20 -14 20 -15 0 -21 6 -21
21 0 12 -4 18 -11 13 -7 -4 -10 -1 -7 7 3 8 31 21 62 29 32 9 65 25 74 35 12
17 14 17 9 3 -8 -24 19 -24 27 -1 6 14 9 15 15 4 7 -10 16 -10 52 2 24 8 66
18 93 22 27 4 61 12 75 17 14 6 33 10 41 10 8 -1 20 1 26 6 12 7 56 93 51 98
-2 2 -34 -6 -72 -18 -39 -12 -73 -21 -77 -20 -12 3 -125 -25 -140 -34 -7 -4
-19 -9 -28 -10 -79 -12 -96 -16 -110 -28 -8 -7 -33 -13 -55 -14 -49 -3 -97
-12 -110 -22 -12 -9 -62 -23 -90 -25 -48 -4 -149 -27 -166 -38 -10 -6 -20 -21
-24 -34 -3 -13 -10 -23 -15 -23 -6 0 -8 11 -4 25 7 28 3 29 -46 14 -19 -6 -51
-15 -70 -19 -19 -5 -87 -23 -150 -40 -63 -18 -142 -35 -175 -39 -33 -5 -87
-17 -120 -29 -33 -11 -158 -44 -278 -73 -199 -47 -217 -53 -217 -73 1 -53 30
-56 170 -16 41 11 84 23 95 26 11 3 43 10 70 15 28 6 57 13 65 16 8 3 19 5 24
4 5 -1 18 7 30 18 l21 20 28 -32 c15 -18 59 -75 97 -127 85 -115 114 -151 205
-246 39 -40 81 -87 94 -104 13 -18 36 -37 50 -43 14 -7 32 -20 39 -30 7 -9 17
-15 21 -13 4 3 15 -8 25 -23 10 -15 30 -35 45 -44 14 -9 57 -41 95 -71 53 -42
73 -53 83 -44 10 8 13 7 13 -5 0 -21 60 -61 195 -131 76 -40 116 -55 132 -51
16 4 23 1 23 -9 0 -8 6 -16 14 -19 16 -6 36 11 36 30 0 7 5 13 10 13 6 0 10
-4 10 -9 0 -6 -4 -13 -10 -16 -22 -14 -7 -37 36 -55 51 -22 84 -26 84 -9 0 6
6 9 13 6 6 -2 11 -11 9 -19 -2 -11 9 -18 35 -23 21 -3 56 -15 79 -26 22 -10
63 -20 92 -21 29 -2 52 -6 52 -10 0 -13 28 -9 33 5 3 7 6 5 6 -5 2 -29 40 -22
52 10 19 46 24 55 34 53 15 -3 7 -29 -16 -52 -25 -25 -24 -39 4 -37 12 1 38
-3 57 -10 47 -15 170 -23 170 -11 0 5 7 9 16 9 8 0 13 -4 10 -9 -9 -14 31 -19
144 -19 92 0 108 3 128 21 20 19 22 19 22 3 0 -16 7 -17 53 -12 28 3 67 5 86
5 58 0 88 11 99 36 7 14 16 25 22 25 14 0 12 -27 -2 -33 -22 -9 85 1 142 14
30 6 64 16 75 22 11 6 32 10 46 8 15 -1 33 4 40 11 8 7 31 14 51 15 20 1 56
12 80 25 24 13 62 30 86 37 24 6 64 23 89 37 25 13 50 24 55 24 15 0 190 89
208 105 9 8 36 25 61 39 24 13 43 29 41 35 -1 6 7 11 19 11 24 0 89 47 89 65
0 8 8 11 19 8 12 -3 28 7 47 30 16 19 39 37 50 41 12 4 49 35 82 69 34 34 75
73 93 86 17 14 38 40 45 58 8 18 18 33 22 33 4 0 21 14 37 30 17 17 41 41 53
53 104 98 358 535 406 698 9 28 20 57 24 63 12 15 45 137 39 143 -3 2 6 31 19
63 13 33 24 75 24 93 0 18 4 37 9 43 5 5 16 65 26 134 21 154 25 166 64 174
17 3 45 9 61 12 17 4 30 10 30 15 0 5 6 6 13 3 18 -7 201 42 205 56 3 7 8 7
15 1 12 -9 203 33 221 49 9 9 -2 71 -12 69 -4 -1 -34 -5 -67 -10z m-714 -223
c7 4 10 2 7 -6 -7 -23 -22 -21 -37 2 -13 21 -13 22 2 10 9 -8 21 -10 28 -6z
m-146 -35 c-3 -6 -11 -11 -16 -11 -5 0 -4 6 3 14 14 16 24 13 13 -3z m55 5 c0
-3 -4 -8 -10 -11 -5 -3 -10 -1 -10 4 0 6 5 11 10 11 6 0 10 -2 10 -4z m82 -7
c44 10 50 -1 36 -80 -5 -30 -11 -72 -13 -94 -6 -48 -55 -240 -80 -310 -9 -27
-18 -57 -19 -65 -2 -19 -55 -135 -128 -278 -32 -62 -58 -119 -58 -125 0 -7 -9
-20 -20 -30 -12 -10 -18 -22 -15 -27 9 -14 -5 -51 -16 -44 -5 3 -7 10 -4 15 4
5 4 9 2 9 -3 0 -20 -23 -38 -52 -19 -29 -44 -63 -58 -77 -13 -15 -46 -57 -73
-96 -27 -38 -56 -74 -64 -78 -8 -4 -14 -13 -14 -20 0 -7 -10 -17 -22 -22 -13
-6 -22 -17 -20 -24 1 -7 -1 -10 -6 -7 -10 6 -44 -28 -61 -61 -6 -13 -20 -23
-30 -23 -9 0 -42 -24 -72 -53 -30 -29 -71 -63 -91 -76 -21 -12 -38 -27 -38
-32 0 -6 -15 -16 -34 -24 -19 -8 -37 -19 -41 -25 -3 -5 -25 -19 -49 -30 -24
-10 -56 -32 -73 -47 -16 -15 -36 -27 -45 -25 -8 1 -27 -9 -42 -23 -15 -14 -35
-25 -45 -25 -10 0 -24 -7 -31 -15 -7 -8 -20 -15 -30 -15 -15 0 -83 -25 -215
-80 -39 -16 -182 -58 -221 -65 -48 -9 -84 -30 -84 -50 0 -8 -4 -15 -10 -15
-14 0 -13 13 2 28 14 14 15 14 -92 2 -139 -17 -183 -22 -222 -23 -24 -1 -42
-9 -52 -22 -13 -17 -15 -17 -16 -4 0 13 -14 18 -67 21 -81 5 -100 2 -106 -21
-3 -10 -5 -7 -6 8 -1 22 -3 23 -18 9 -35 -29 -46 -32 -38 -9 5 16 2 21 -12 21
-10 0 -24 -4 -32 -9 -10 -7 -18 -5 -25 5 -7 8 -34 15 -71 18 -33 2 -67 6 -75
9 -36 13 -80 16 -86 5 -4 -7 -10 -5 -16 6 -7 13 -17 16 -40 11 -20 -5 -28 -4
-24 3 9 16 -52 26 -69 12 -15 -12 -16 -11 -19 12 0 6 -41 25 -89 41 -85 28
-89 28 -103 11 -14 -18 -15 -18 -10 1 5 17 -4 25 -57 49 -171 79 -300 148
-372 199 -22 15 -58 40 -80 55 -22 14 -59 42 -83 61 -36 29 -45 32 -54 20 -8
-11 -9 -11 -5 3 4 11 -17 38 -69 87 -42 39 -79 71 -83 71 -4 0 -14 11 -21 25
-9 18 -19 23 -32 19 -14 -4 -18 0 -18 18 0 15 -17 40 -45 68 -43 42 -45 43
-60 25 -14 -20 -14 -20 -15 1 0 11 5 25 11 31 8 8 -4 30 -45 81 -70 87 -75
112 -23 127 21 6 42 17 47 25 8 12 10 12 10 1 0 -9 7 -11 23 -7 12 4 30 9 40
11 10 2 27 7 37 10 24 8 88 -27 82 -44 -2 -7 0 -16 5 -20 5 -3 22 -23 38 -44
25 -34 30 -37 41 -23 6 9 15 16 19 16 5 0 1 -8 -9 -18 -15 -18 -13 -23 51 -91
41 -43 77 -73 90 -74 12 -1 26 -12 33 -25 9 -20 13 -22 26 -11 14 11 15 10 12
-11 -2 -16 1 -24 10 -22 7 1 17 -9 22 -24 9 -22 14 -25 40 -19 20 4 30 3 30
-5 0 -7 -7 -10 -15 -6 -9 3 -15 0 -15 -9 0 -18 31 -20 49 -3 10 11 15 9 27 -7
13 -18 13 -20 0 -23 -21 -4 -21 -22 -1 -22 9 0 18 -7 22 -16 3 -8 15 -20 27
-25 11 -5 35 -18 51 -29 42 -28 55 -33 62 -26 3 3 0 12 -7 21 -7 9 -10 18 -6
22 11 11 27 -12 29 -42 2 -24 12 -34 61 -59 53 -27 60 -28 70 -13 15 19 42 6
33 -17 -8 -19 21 -36 62 -36 40 0 61 -9 55 -25 -7 -18 32 -25 53 -9 25 19 30
17 37 -10 7 -29 42 -41 56 -18 9 16 9 16 10 0 0 -24 46 -44 105 -46 27 -1 51
-6 53 -12 6 -16 22 -12 22 5 0 9 9 15 25 15 20 0 25 -5 25 -27 0 -25 1 -25 18
-10 23 21 32 21 32 2 0 -19 26 -19 34 0 3 8 11 15 17 15 8 0 8 -4 -1 -15 -10
-12 -8 -15 12 -20 59 -14 148 -21 157 -12 5 5 17 4 30 -3 18 -9 23 -8 30 12 5
13 6 29 4 36 -4 8 0 10 11 6 9 -3 16 -12 16 -20 0 -8 6 -11 15 -8 8 4 15 1 15
-5 0 -6 -9 -11 -21 -11 -11 0 -18 -4 -15 -9 12 -18 99 -4 117 18 21 26 27 26
25 4 -1 -15 8 -18 53 -19 54 0 71 8 92 48 8 15 14 17 22 8 9 -8 8 -14 -5 -21
-27 -15 -21 -26 10 -21 21 3 28 9 28 24 -1 12 5 23 12 26 9 2 13 -3 12 -14 -4
-37 -25 -39 219 28 66 19 86 29 92 46 9 23 29 31 29 11 0 -8 5 -8 15 1 8 7 22
10 30 6 18 -7 106 26 146 55 15 10 33 19 40 19 7 0 25 11 39 25 15 14 40 28
56 31 37 7 54 22 47 41 -5 13 -1 15 20 9 23 -5 27 -3 27 15 0 15 5 19 15 15
21 -8 55 7 87 38 15 14 31 26 36 26 5 0 17 10 28 23 11 12 31 31 46 43 14 11
26 29 25 40 -2 15 4 18 25 16 21 -2 34 7 63 41 20 24 42 55 49 68 6 13 16 24
21 24 20 1 42 22 103 97 136 167 322 501 307 549 -5 14 1 27 19 44 14 13 26
32 26 42 0 10 9 43 21 73 14 36 19 68 16 93 -4 27 -1 39 10 46 18 10 31 101
14 101 -19 0 -12 30 12 53 12 12 55 33 95 46 39 13 72 28 72 35 0 8 3 7 8 -1
5 -8 19 -9 44 -4z m198 1 c0 -5 -5 -10 -11 -10 -5 0 -7 5 -4 10 3 6 8 10 11
10 2 0 4 -4 4 -10z m-30 -84 c0 -17 -14 -29 -23 -20 -8 8 3 34 14 34 5 0 9 -6
9 -14z m-760 -11 c0 -8 -4 -15 -10 -15 -5 0 -7 7 -4 15 4 8 8 15 10 15 2 0 4
-7 4 -15z m660 -45 c0 -5 -5 -10 -11 -10 -5 0 -7 5 -4 10 3 6 8 10 11 10 2 0
4 -4 4 -10z m-300 -32 c0 -14 -19 -47 -21 -38 -8 26 -4 50 7 50 8 0 14 -6 14
-12z m-410 -12 c0 -13 -20 -26 -41 -26 -10 0 22 38 34 39 4 1 7 -5 7 -13z
m350 -26 c6 -11 8 -25 4 -32 -4 -7 -12 -2 -20 13 -11 21 -10 39 1 39 2 0 9 -9
15 -20z m-20 -50 c0 -5 7 -10 15 -10 17 0 20 -16 5 -25 -5 -3 -10 -1 -10 4 0
6 -9 11 -20 11 -20 0 -26 11 -13 23 10 10 23 8 23 -3z m-405 -66 c-9 -9 -18
-14 -21 -11 -9 9 6 27 22 27 13 0 13 -2 -1 -16z m25 -24 c0 -5 -5 -10 -11 -10
-5 0 -7 5 -4 10 3 6 8 10 11 10 2 0 4 -4 4 -10z m-985 -20 c3 -5 1 -10 -4 -10
-6 0 -11 5 -11 10 0 6 2 10 4 10 3 0 8 -4 11 -10z m-115 -25 c0 -8 -4 -15 -10
-15 -5 0 -7 7 -4 15 4 8 8 15 10 15 2 0 4 -7 4 -15z m1030 -15 c0 -5 -4 -10
-10 -10 -5 0 -10 5 -10 10 0 6 5 10 10 10 6 0 10 -4 10 -10z m35 -30 c-3 -5
-15 -10 -26 -10 -11 0 -17 5 -14 10 3 6 15 10 26 10 11 0 17 -4 14 -10z m1
-59 c-9 -16 -16 -36 -16 -43 0 -16 -37 -41 -50 -33 -15 9 -12 25 4 25 8 0 17
9 21 19 7 24 46 74 52 67 2 -2 -3 -18 -11 -35z m-36 20 c0 -5 -7 -11 -15 -15
-8 -3 -15 -12 -15 -21 0 -8 -4 -15 -10 -15 -14 0 -12 12 6 38 15 22 34 29 34
13z m-1490 -21 c0 -5 -5 -10 -11 -10 -5 0 -7 5 -4 10 3 6 8 10 11 10 2 0 4 -4
4 -10z m2309 -51 c-19 -12 -24 -2 -8 17 9 11 14 13 17 4 3 -7 -2 -16 -9 -21z
m-419 -15 c0 -8 -5 -12 -10 -9 -6 4 -8 11 -5 16 9 14 15 11 15 -7z m-20 -54
c0 -5 -4 -10 -10 -10 -5 0 -10 5 -10 10 0 6 5 10 10 10 6 0 10 -4 10 -10z
m-2580 -40 c0 -5 -4 -10 -10 -10 -5 0 -10 5 -10 10 0 6 5 10 10 10 6 0 10 -4
10 -10z m2140 2 c0 -12 -30 -52 -40 -52 -5 0 -4 14 1 30 10 26 39 43 39 22z
m363 -96 c-11 -15 -22 -21 -27 -15 -6 5 -3 14 10 24 29 22 37 18 17 -9z m440
-11 c-3 -9 -8 -14 -10 -11 -3 3 -2 9 2 15 9 16 15 13 8 -4z m-908 -35 c3 -5 1
-10 -4 -10 -6 0 -11 5 -11 10 0 6 2 10 4 10 3 0 8 -4 11 -10z m315 -80 c0 -5
-4 -10 -9 -10 -6 0 -13 5 -16 10 -3 6 1 10 9 10 9 0 16 -4 16 -10z m-410 -30
c8 -5 11 -10 5 -10 -5 0 -17 5 -25 10 -8 5 -10 10 -5 10 6 0 17 -5 25 -10z
m-30 -34 c0 -8 -7 -17 -16 -20 -28 -11 -35 -7 -24 14 12 23 40 27 40 6z m400
4 c0 -5 -4 -10 -10 -10 -5 0 -10 5 -10 10 0 6 5 10 10 10 6 0 10 -4 10 -10z
m60 -10 c0 -5 -5 -10 -11 -10 -5 0 -7 5 -4 10 3 6 8 10 11 10 2 0 4 -4 4 -10z
m-25 -70 c3 -6 -2 -13 -12 -17 -10 -4 -25 -16 -35 -28 -9 -11 -19 -17 -23 -13
-9 9 36 67 52 67 6 1 15 -4 18 -9z m-3828 -22 c-3 -8 -6 -5 -6 6 -1 11 2 17 5
13 3 -3 4 -12 1 -19z m1143 -18 c0 -5 -4 -10 -10 -10 -5 0 -10 5 -10 10 0 6 5
10 10 10 6 0 10 -4 10 -10z m3080 -44 c0 -3 -4 -8 -10 -11 -5 -3 -10 -1 -10 4
0 6 5 11 10 11 6 0 10 -2 10 -4z m-3037 -49 c-7 -11 -23 12 -23 33 1 12 4 11
15 -4 8 -10 12 -23 8 -29z m2012 13 c3 -5 1 -10 -4 -10 -6 0 -11 5 -11 10 0 6
2 10 4 10 3 0 8 -4 11 -10z m-1920 -10 c3 -5 -1 -10 -9 -10 -9 0 -16 5 -16 10
0 6 4 10 9 10 6 0 13 -4 16 -10z m-1095 -20 c0 -11 -6 -20 -14 -20 -9 0 -12 7
-9 20 3 11 9 20 14 20 5 0 9 -9 9 -20z m545 -1 c-10 -15 -25 -10 -19 6 4 8 10
12 15 9 5 -3 7 -10 4 -15z m65 7 c0 -2 -3 -11 -6 -20 -9 -23 -24 -20 -24 4 0
11 7 20 15 20 8 0 15 -2 15 -4z m473 -21 c-3 -9 -8 -14 -10 -11 -3 3 -2 9 2
15 9 16 15 13 8 -4z m-433 -23 c0 -11 -9 -27 -20 -37 -22 -20 -26 -9 -8 30 13
29 28 33 28 7z m2800 -12 c0 -13 -5 -18 -15 -14 -8 4 -15 12 -15 20 0 8 7 14
15 14 8 0 15 -9 15 -20z m-2855 0 c3 -5 1 -10 -4 -10 -6 0 -11 5 -11 10 0 6 2
10 4 10 3 0 8 -4 11 -10z m2305 -14 c0 -11 -19 -15 -25 -6 -3 5 1 10 9 10 9 0
16 -2 16 -4z m475 -16 c-3 -5 -11 -10 -16 -10 -6 0 -7 5 -4 10 3 6 11 10 16
10 6 0 7 -4 4 -10z m-2713 -32 c-9 -9 -12 -7 -12 12 0 19 3 21 12 12 9 -9 9
-15 0 -24z m-451 -20 c-5 -13 -16 -30 -26 -38 -15 -12 -16 -11 -9 16 6 25 34
58 42 50 1 -2 -2 -14 -7 -28z m1179 -13 c7 -9 11 -18 8 -20 -9 -10 -38 7 -38
21 0 18 14 18 30 -1z m1373 -15 c-9 -16 -20 -30 -24 -30 -4 0 -2 14 4 30 6 17
17 30 25 30 10 0 9 -7 -5 -30z m-53 -1 c0 -5 -9 -9 -20 -9 -19 0 -26 11 -14
23 8 8 34 -3 34 -14z m-1285 -69 c-3 -5 -10 -10 -16 -10 -5 0 -9 5 -9 10 0 6
7 10 16 10 8 0 12 -4 9 -10z m65 0 c0 -5 -5 -10 -11 -10 -5 0 -7 5 -4 10 3 6
8 10 11 10 2 0 4 -4 4 -10z m-1250 -45 c0 -8 -4 -15 -10 -15 -5 0 -10 7 -10
15 0 8 5 15 10 15 6 0 10 -7 10 -15z m1966 -12 c-10 -10 -19 5 -10 18 6 11 8
11 12 0 2 -7 1 -15 -2 -18z m824 13 c0 -2 -7 -7 -16 -10 -8 -3 -12 -2 -9 4 6
10 25 14 25 6z m-1260 -46 c0 -16 -3 -17 -25 -7 -29 14 -32 24 -7 30 23 5 32
-1 32 -23z m-1380 10 c0 -5 -4 -10 -10 -10 -5 0 -10 5 -10 10 0 6 5 10 10 10
6 0 10 -4 10 -10z m1790 -16 c0 -8 -4 -12 -10 -9 -5 3 -10 13 -10 21 0 8 5 12
10 9 6 -3 10 -13 10 -21z m164 11 c-4 -8 -8 -15 -10 -15 -2 0 -4 7 -4 15 0 8
4 15 10 15 5 0 7 -7 4 -15z m-2014 1 c0 -3 -4 -8 -10 -11 -5 -3 -10 -1 -10 4
0 6 5 11 10 11 6 0 10 -2 10 -4z m2656 -38 c-19 -26 -22 -7 -4 25 7 13 13 17
15 10 3 -7 -3 -23 -11 -35z m-2046 28 c0 -3 -4 -8 -10 -11 -5 -3 -10 -1 -10 4
0 6 5 11 10 11 6 0 10 -2 10 -4z m1185 -6 c-3 -5 -10 -10 -16 -10 -5 0 -9 5
-9 10 0 6 7 10 16 10 8 0 12 -4 9 -10z m815 -4 c0 -15 -18 -31 -26 -23 -7 7 7
37 17 37 5 0 9 -6 9 -14z m-2480 -65 c0 -5 -9 -19 -20 -32 -21 -26 -27 -11
-10 22 11 19 30 26 30 10z m630 -22 c0 -11 -27 -12 -34 0 -3 4 -3 11 0 14 8 8
34 -3 34 -14z m1840 -19 c0 -5 -5 -10 -11 -10 -5 0 -7 5 -4 10 3 6 8 10 11 10
2 0 4 -4 4 -10z m-2340 -44 c0 -7 -7 -19 -15 -26 -16 -13 -20 -3 -9 24 8 20
24 21 24 2z m590 -2 c0 -8 -4 -12 -10 -9 -5 3 -10 10 -10 16 0 5 5 9 10 9 6 0
10 -7 10 -16z m2205 -44 c-20 -22 -31 -20 -22 5 4 8 14 15 23 15 16 0 16 -2
-1 -20z m-995 6 c0 -3 -4 -8 -10 -11 -5 -3 -10 -1 -10 4 0 6 5 11 10 11 6 0
10 -2 10 -4z m928 -18 c-2 -6 -10 -14 -16 -16 -7 -2 -10 2 -6 12 7 18 28 22
22 4z m-1398 -18 c0 -5 -5 -10 -11 -10 -5 0 -7 5 -4 10 3 6 8 10 11 10 2 0 4
-4 4 -10z m403 -15 c-6 -18 -19 -19 -29 -4 -7 12 15 31 28 23 4 -3 5 -11 1
-19z m-669 0 c-4 -8 -8 -15 -10 -15 -2 0 -4 7 -4 15 0 8 4 15 10 15 5 0 7 -7
4 -15z m796 0 c0 -12 -24 -55 -32 -55 -11 0 -10 17 2 41 9 17 30 27 30 14z
m832 -17 c-7 -7 -12 -8 -12 -2 0 14 12 26 19 19 2 -3 -1 -11 -7 -17z m-1229
-13 c-3 -9 -8 -14 -10 -11 -3 3 -2 9 2 15 9 16 15 13 8 -4z m169 -7 c-7 -7
-12 -8 -12 -2 0 14 12 26 19 19 2 -3 -1 -11 -7 -17z m968 -47 c0 -6 -4 -13
-10 -16 -5 -3 -10 1 -10 9 0 9 5 16 10 16 6 0 10 -4 10 -9z m-70 -11 c0 -5 -5
-10 -11 -10 -5 0 -7 5 -4 10 3 6 8 10 11 10 2 0 4 -4 4 -10z m-2220 -65 c0 -8
-4 -15 -10 -15 -5 0 -10 7 -10 15 0 8 5 15 10 15 6 0 10 -7 10 -15z m82 -57
c-7 -7 -12 -8 -12 -2 0 14 12 26 19 19 2 -3 -1 -11 -7 -17z m1948 8 c0 -3 -4
-8 -10 -11 -5 -3 -10 -1 -10 4 0 6 5 11 10 11 6 0 10 -2 10 -4z m-209 -69
c-16 -16 -26 0 -10 19 9 11 15 12 17 4 2 -6 -1 -17 -7 -23z m-131 -11 c0 -3
-4 -8 -10 -11 -5 -3 -10 -1 -10 4 0 6 5 11 10 11 6 0 10 -2 10 -4z m110 -26
c0 -5 -4 -10 -10 -10 -5 0 -10 5 -10 10 0 6 5 10 10 10 6 0 10 -4 10 -10z
m-1140 -20 c-6 -11 -15 -20 -21 -20 -6 0 -6 7 1 20 6 11 15 20 21 20 6 0 6 -7
-1 -20z m1161 -23 c-10 -9 -11 -8 -5 6 3 10 9 15 12 12 3 -3 0 -11 -7 -18z
m-971 -71 c0 -2 -7 -6 -15 -10 -8 -3 -15 -1 -15 4 0 6 7 10 15 10 8 0 15 -2
15 -4z m210 -26 c0 -5 -5 -10 -11 -10 -5 0 -7 5 -4 10 3 6 8 10 11 10 2 0 4
-4 4 -10z"/>
<path d="M892 2623 c-127 -63 -145 -396 -35 -678 27 -70 37 -89 75 -146 73
-111 139 -156 212 -144 53 8 95 40 117 89 23 52 42 205 35 277 -3 30 -8 78
-11 108 -3 29 -12 65 -19 80 -8 14 -17 42 -21 61 -17 83 -98 233 -160 299 -66
70 -126 87 -193 54z m170 -266 c55 -64 104 -200 106 -292 2 -60 -17 -141 -36
-158 -34 -30 -58 -29 -95 2 -107 94 -162 376 -90 462 22 25 30 29 57 24 17 -4
43 -21 58 -38z"/>
<path d="M574 2540 c-12 -5 -24 -13 -27 -17 -3 -5 16 -101 44 -212 51 -211 54
-231 41 -231 -8 0 -72 85 -72 95 0 3 -20 36 -45 75 -25 39 -45 73 -45 76 0 2
-8 14 -19 25 -10 11 -29 40 -42 65 -38 74 -84 94 -127 54 -12 -12 -22 -23 -22
-25 0 -11 221 -919 226 -926 7 -13 96 -3 104 12 4 6 2 37 -6 68 -7 31 -31 132
-54 225 -22 93 -38 171 -36 174 10 9 32 -17 81 -95 26 -43 68 -108 92 -145 23
-37 43 -70 43 -73 0 -10 61 -90 75 -97 17 -10 72 1 84 16 6 7 -25 154 -89 421
-55 226 -100 425 -100 443 0 17 -4 32 -9 32 -5 0 -11 10 -13 23 -2 17 -10 23
-33 24 -16 1 -40 -2 -51 -7z m133 -512 c-3 -7 -5 -2 -5 12 0 14 2 19 5 13 2
-7 2 -19 0 -25z m-17 -78 c13 -24 3 -25 -35 -6 -17 9 -22 16 -13 19 25 10 37
7 48 -13z m-20 -65 c0 -8 -2 -15 -4 -15 -2 0 -6 7 -10 15 -3 8 -1 15 4 15 6 0
10 -7 10 -15z m30 -14 c0 -6 -4 -13 -10 -16 -5 -3 -10 1 -10 9 0 9 5 16 10 16
6 0 10 -4 10 -9z"/>
</g>
</svg>
